<svg version="1.2" xmlns="http://www.w3.org/2000/svg" viewBox="0 0 4096 4096" width="4096" height="4096">
	<title>IsonFire_Dark</title>
	<style>
		.s0 { fill: #000000 } 
		.s1 { fill: #ffffff } 
	</style>
	<path id="Background" class="s0" d="m0 0h4096v4096h-4096z"/>
	<path id="ISOn Fire" class="s1" aria-label="ISOn
Fire"  d="m683.5 1668.1q0-55.2 6.9-62.1 10.4-5.7 40.3-10.3 20.7-3.5 26.4-3.5-13.8-115-13.8-231.1 0-111.6 13.8-222-5.7 0-26.4-3.4-29.9-4.6-40.3-10.4-6.9-6.9-6.9-62.1 0-59.8 6.9-67.8-1.1-13.8 36.8-21.9 39.1-9.2 96.6-9.2 61 0 123.1 10.4 6.9 11.5 17.2 58.6 10.4 46 9.2 70.2 0 14.9-3.4 19.5-25.3 12.7-55.2 12.7-12.7 0-19.6-1.2 13.8 93.2 13.8 202.4 0 89.7-13.8 259.9 6.9-1.1 19.6-1.1 29.9 0 55.2 12.6 3.4 4.6 3.4 19.6 0 24.1-10.3 71.3-9.2 46-16.1 57.5-65.6 5.7-119.6 5.7-59.8 0-98.9-6.9-39.1-6.9-38-19.5-6.9-8.1-6.9-67.9zm393.3-17.2q0-56.4 21.9-96.6 50.6-16.1 65.5-16.1 27.6 0 84 16.1 5.7 14.9 8 43.7 55.2 36.8 124.2 36.8 63.3 0 110.4-36.8 48.3-38 48.3-84 0-65.5-126.5-70.1-48.3-2.3-83.9-5.8-35.7-4.6-85.1-17.3-48.3-13.7-79.4-35.6-31-21.8-54-60.9-21.9-40.3-21.9-94.3 0-115 84-196.7 83.9-82.8 201.2-82.8 81.7 0 156.4 41.4 6.9-34.5 24.2-48.3 21.8-11.5 55.2-11.5 52.9 0 73.6 20.7 6.9 20.7 6.9 103.5 0 55.2-10.4 78.2-9.2 23-36.8 28.8-19.5 5.7-37.9 5.7-41.4 0-67.9-17.2-6.9-17.3-6.9-38-39.1-19.5-113.8-19.5-80.5 0-123.1 26.4-42.5 25.3-42.5 86.3 0 44.8 25.3 65.5 26.4 19.6 83.9 21.8 163.3 8.1 222 26.5 125.3 38 125.3 165.6 0 120.8-89.7 207-89.7 85.1-230 85.1-79.3 0-138-42.5 0 28.7-11.5 42.5-20.7 11.5-67.8 11.5-50.6 0-69-17.2-24.2-46-24.2-122zm718.8-189.7q0-86.3 35.6-174.8 35.7-89.7 95.5-162.1 60.9-72.5 150.6-118.5 89.7-46 189.8-46 146 0 218.5 92 73.6 92 73.6 233.5 0 85.1-26.5 170.1-26.4 84-77 157.6-49.5 73.6-134.6 119.6-83.9 46-188.6 46-149.5 0-243.8-86.2-93.1-87.4-93.1-231.2zm171.3-18.4q0 84 44.9 134.6 44.8 49.4 117.3 49.4 75.9 0 140.3-56.4 64.4-56.3 97.7-133.3 33.4-77.1 33.4-148.4 0-75.9-41.4-123-40.3-48.3-118.5-48.3-80.5 0-144.9 52.9-64.4 51.7-96.6 125.3-32.2 73.6-32.2 147.2zm676.2 243.8q0-71.3 31.1-88.5 28.7-10.4 78.2-10.4 6.9 0 18.4 2.3 0-33.3-2.3-106.9-2.3-74.8-2.3-112.7-4.6 0-38 3.4-33.3 2.3-39.1 2.3-4.6 0-13.8-2.3-9.2-2.3-13.8-2.3-4.6-4.6-4.6-24.1 0-31.1 9.2-77.1 9.2-47.1 17.3-57.5 33.3-20.7 121.9-20.7 70.1 0 90.8 8.1 21.9 6.9 21.9 35.6 0 34.5-5.8 69 108.1-124.2 233.5-124.2 197.8 0 197.8 278.3 0 56.4-6.9 109.3 0-2.3 10.3-2.3 17.3 0 54.1 5.7 10.3 11.5 10.3 74.8 0 79.3-11.5 97.7-86.2 23-149.5 23-44.8 0-103.5-20.7-8-5.7-17.2-40.2-9.2-35.7-9.2-61 0-37.9 20.7-65.5 12.6-8.1 33.3-8.1 16.1 0 31.1 5.8 0-3.5 0-29.9 1.1-26.5 1.1-33.4 0-72.4-40.2-126.5-39.1-55.2-98.9-55.2-51.8 0-95.5 42.6-42.5 41.4-42.5 131.1 0 32.2 3.4 83.9 13.8-8 35.7-8 20.7 0 25.3 5.7 11.5 0 11.5 46 0 10.4-11.5 94.3-82.8 40.3-210.5 40.3-104.6 0-129.9-32.2-10.4-12.7-10.4-49.5zm-1727.9 1335.2q0-24.2 4.6-28.8 32.2-4.6 51.8-4.6 3.4 0 11.5 1.1 9.2 0 13.8 0-8.1-103.5-8.1-180.5 0-103.5 15-310.5-38 10.4-51.8 10.4-10.3 0-13.8-2.4-18.4-13.7-18.4-64.3 0-54.1 15-77.1 73.6-34.5 251.8-34.5 111.6 0 232.3 12.7 120.8 12.6 167.9 28.7 11.5 57.5 11.5 88.5 0 54.1-26.4 88.6-23 5.8-48.3 5.8-65.6 0-84-36.9l3.5-37.9q-23-14.9-119.6-14.9-33.4 0-82.8 3.4-48.3 3.4-49.5 6.9-16.1 56.4-29.9 175.9 98.9 0 100.1-3.4 0-28.7 11.5-40.2 36.8-8.1 41.4-8.1 33.3 0 60.9 11.5 20.7 24.2 20.7 87.4 0 35.7-6.9 69-5.7 32.2-14.9 41.4-10.4 8-65.6 8-31 0-37.9-6.8-2.3-2.3-5.8-5.8-2.3-4.6-3.4-5.7-1.2-2.3-2.3-4.7-1.2-3.4-2.3-6.8 0-3.5 0-9.3h-103.5q0 102.4 5.7 217.4 10.4-3.4 33.4-3.4 29.9 0 33.3 4.5 11.5 15 11.5 82.9 0 55.1-2.3 55.1-36.8 28.8-142.6 28.8-117.3 0-162.1-23-15-19.5-15-118.4zm694.6 29.9q0-58.7 6.9-66.8 13.8-8 34.5-10.3 13.8-2.3 59.8-2.3-6.9-72.4-6.9-157.5 0-93.2 11.5-118.5-56.3 0-74.7-4.6 1.1-31 8-65.5 2.3-15 13.8-58.7 42.6-8.1 142.6-8.1 40.3 0 73.6 4.6 34.5 4.7 51.8 11.5 18.4 5.8 18.4 11.5 2.3 0 2.3 41.4 0 65.6-11.5 82.9-4.6 6.9-27.6 6.9-42.6 0-54.1-5.8-12.6 80.5-12.6 209.3 0 52.9 3.4 55.2 6.9-1.1 19.6-1.1 41.4 0 66.7 12.6 3.4 4.6 3.4 20.7 0 28.8-8 69-8.1 40.3-23 55.2-13.8 13.8-89.7 13.8-180.6 0-200.1-33.3-8.1-15-8.1-62.1zm92-716.5q0-32.2 34.5-32.2 28.8 0 62.1 17.3 24.2-24.2 64.4-24.2 25.3 0 44.9 17.3 19.5 17.2 19.5 47.1 0 14.9-6.9 28.8-5.7 13.7-12.6 23-6.9 9.1-23 21.8-16.1 11.5-25.3 17.3-8.1 4.5-29.9 17.2-21.9 11.5-27.6 14.9-44.9-33.3-72.5-74.7-27.6-42.5-27.6-73.6zm333.5 309.3q0-47.1 6.9-66.6 65.6-19.6 127.7-19.6 74.7 0 115 31.1-1.2 19.5-1.2 58.6l4.6-9.2q3.5-9.2 12.7-21.9 10.3-13.7 24.1-26.4 13.8-13.8 39.1-23 25.3-9.2 56.4-9.2 87.4 0 148.3 74.7-8 50.7-40.2 77.1-32.2 26.4-64.4 28.8-42.6-30-81.7-30-113.8 0-113.8 144.9 0 49.5 12.6 108.1 2.3-5.7 32.2-5.7 34.5 0 42.6 8.1 13.8 21.8 13.8 71.2 0 74.8-26.5 97.8-58.6 12.6-141.4 12.6-135.7 0-157.6-25.2-3.4-13.8-3.4-70.2 0-80.5 6.9-86.2 8-10.4 44.8-10.4 26.5 0 39.1 8-10.3-26.4-10.3-178.2 0-50.6 3.4-57.5-13.8 2.3-25.3 2.3-41.4 0-57.5-20.7-6.9-17.3-6.9-63.3zm553.2 262.3q0-130 93.1-238.1 94.3-108.1 210.5-108.1 71.3 0 121.9 43.7 50.6 43.7 50.6 113.9 0 81.6-67.9 140.2-66.7 57.5-177.1 57.5-63.2 0-88.5-19.5 1.1 55.2 39.1 88.5 37.9 32.3 87.4 32.3 64.4 0 104.6-50.7 0-9.2 3.5-19.5 50.6-41.4 109.2-41.4 11.5 0 17.3 1.2 75.9 41.4 93.1 135.6-1.1 9.3-9.2 19.6-6.9 10.3-14.9 18.4-8.1 6.9-23 17.3-15 9.1-24.2 13.7-8 4.6-25.3 13.9-16.1 9.1-18.4 10.3-6.9 0-11.5-1.2-4.6-2.2-9.2-5.7-3.4-4.6-4.6-5.8-1.1-2.2-4.6-9.1-3.4-8.1-4.6-9.3-85.1 56.4-182.8 56.4-109.3 0-187.5-70.1-77-70.2-77-184zm179.4-134.6q0 38 55.2 38 41.4 0 79.3-19.6 38-19.6 38-48.3 0-19.5-13.8-40.3-12.7-21.8-41.4-21.8-35.7 0-77.1 28.7-40.2 28.8-40.2 63.3z"/>
</svg>